leg6dof9musc_states
version=1
nRows=23
nColumns=15
inDegrees=yes

# SIMM Motion File Header:
name leg6dof9musc_states
datacolumns 15
datarows 23
otherdata 1
range 1.02500000 1.04700000
endheader
time	pelvis_tilt	pelvis_tx	pelvis_ty	hip_flexion_r	knee_angle_r	knee_angle_pat_r	ankle_angle_r	pelvis_tilt_u	pelvis_tx_u	pelvis_ty_u	hip_flexion_r_u	knee_angle_r_u	knee_angle_pat_r_u	ankle_angle_r_u
      1.02500000	      1.21935251	      0.02196617	      1.08715040	      1.14692910	    -14.41639443	    -14.41634473	     12.62536415	    -11.35309834	     -0.13427312	     -0.03911240	    -63.17395082	     27.98573819	     27.98594526	     20.09110105
      1.02600000	      1.20788349	      0.02183175	      1.08711048	      1.08387865	    -14.38846893	    -14.38841902	     12.64555619	    -11.58485080	     -0.13456294	     -0.04073095	    -62.92792971	     27.86704042	     27.86724749	     20.29408743
      1.02700000	      1.19618309	      0.02169705	      1.08706894	      1.02107118	    -14.36065683	    -14.36060672	     12.66595766	    -11.81581105	     -0.13484477	     -0.04234377	    -62.68800317	     27.75889610	     27.75910317	     20.50991991
      1.02800000	      1.18425208	      0.02156207	      1.08702579	      0.95850072	    -14.33294765	    -14.33289733	     12.68657329	    -12.04605129	     -0.13511833	     -0.04395037	    -62.45395739	     27.66118423	     27.66139131	     20.72238193
      1.02900000	      1.17209128	      0.02142681	      1.08698104	      0.89616129	    -14.30533103	    -14.30528050	     12.70739969	    -12.27536050	     -0.13538366	     -0.04555043	    -62.22594769	     27.57377771	     27.57398478	     20.93148509
      1.03000000	      1.15970185	      0.02129130	      1.08693469	      0.83404661	    -14.27779671	    -14.27774598	     12.72844167	    -12.50325004	     -0.13564104	     -0.04714387	    -62.00449330	     27.49654088	     27.49674795	     21.15357042
      1.03100000	      1.14708534	      0.02115553	      1.08688675	      0.77215004	    -14.25033460	    -14.25028366	     12.74971240	    -12.72949068	     -0.13589065	     -0.04873049	    -61.78975138	     27.42933352	     27.42954059	     21.38894666
      1.03200000	      1.13424349	      0.02101952	      1.08683723	      0.71046480	    -14.22293475	    -14.22288361	     12.77122485	    -12.95391103	     -0.13613235	     -0.05030996	    -61.58187368	     27.37199394	     27.37220101	     21.63698136
      1.03300000	      1.12117808	      0.02088327	      1.08678614	      0.64898411	    -14.19558738	    -14.19553603	     12.79298361	    -13.17659002	     -0.13636591	     -0.05188180	    -61.38065422	     27.32434989	     27.32455696	     21.88151152
      1.03400000	      1.10789093	      0.02074679	      1.08673347	      0.58770125	    -14.16828288	    -14.16823132	     12.81498510	    -13.39733016	     -0.13659133	     -0.05344579	    -61.18624983	     27.28622639	     27.28643347	     22.12245872
      1.03500000	      1.09438423	      0.02061009	      1.08667925	      0.52660915	    -14.14101182	    -14.14096005	     12.83723376	    -13.61566264	     -0.13680893	     -0.05500195	    -60.99917190	     27.25744321	     27.25765028	     22.37588655
      1.03600000	      1.08066050	      0.02047318	      1.08662347	      0.46570039	    -14.11376494	    -14.11371297	     12.85974231	    -13.83137085	     -0.13701886	     -0.05655018	    -60.81956898	     27.23781117	     27.23801824	     22.64218538
      1.03700000	      1.06672244	      0.02033606	      1.08656615	      0.40496745	    -14.08653322	    -14.08648103	     12.88252334	    -14.04429450	     -0.13722101	     -0.05809023	    -60.64757815	     27.22711963	     27.22732671	     22.92080675
      1.03800000	      1.05257279	      0.02019874	      1.08650729	      0.34440281	    -14.05930780	    -14.05925541	     12.90558093	    -14.25452165	     -0.13741513	     -0.05962174	    -60.48297509	     27.22514940	     27.22535648	     23.19525405
      1.03900000	      1.03821433	      0.02006123	      1.08644691	      0.28399903	    -14.03208008	    -14.03202749	     12.92891080	    -14.46186506	     -0.13760123	     -0.06114457	    -60.32589229	     27.23167879	     27.23188586	     23.46536004
      1.04000000	      1.02365019	      0.01992354	      1.08638501	      0.22374833	    -14.00484168	    -14.00478888	     12.95251667	    -14.66586594	     -0.13777963	     -0.06265885	    -60.17681267	     27.24648336	     27.24669043	     23.74728168
      1.04100000	      1.00888380	      0.01978567	      1.08632159	      0.16364267	    -13.97758444	    -13.97753143	     12.97641066	    -14.86631179	     -0.13795049	     -0.06416457	    -60.03585799	     27.26932235	     27.26952942	     24.04154937
      1.04200000	      0.99391882	      0.01964764	      1.08625668	      0.10367385	    -13.95030045	    -13.95024723	     13.00060490	    -15.06304384	     -0.13811369	     -0.06566158	    -59.90313779	     27.29993451	     27.30014158	     24.34773171
      1.04300000	      0.97875890	      0.01950945	      1.08619027	      0.04383377	    -13.92298206	    -13.92292864	     13.02510266	    -15.25614777	     -0.13826896	     -0.06714960	    -59.77840174	     27.33807328	     27.33828036	     24.64853335
      1.04400000	      0.96340777	      0.01937111	      1.08612238	     -0.01588561	    -13.89562188	    -13.89556825	     13.04989841	    -15.44543317	     -0.13841633	     -0.06862861	    -59.66175284	     27.38347483	     27.38368190	     24.94370343
      1.04500000	      0.94786947	      0.01923262	      1.08605302	     -0.07549261	    -13.86821279	    -13.86815895	     13.07499486	    -15.63043816	     -0.13855611	     -0.07009877	    -59.55364124	     27.43586029	     27.43606736	     25.24996005
      1.04600000	      0.93214841	      0.01909400	      1.08598219	     -0.13499580	    -13.84074793	    -13.84069389	     13.10040348	    -15.81094336	     -0.13868848	     -0.07156013	    -59.45415776	     27.49493945	     27.49514652	     25.56797389
      1.04700000	      0.91624916	      0.01895524	      1.08590990	     -0.19440385	    -13.81322078	    -13.81316653	     13.12613585	    -15.98678097	     -0.13881330	     -0.07301262	    -59.36338040	     27.56040341	     27.56061049	     25.89740445
